# File created by Blade
# Date/Time:  Thu Jan 22 18:06:27 2015
# Frame Rate: 120.000 fps
#------------------------------------------------------
:FULLY-SPECIFIED
:DEGREES
1663
root 0.765232 33.145697 -2.471361 7.335948 14.002373 0.108469
RightUpLeg -17.135734 14.124442 -2.783448
RightLeg 30.239207 -0.000000 -0.000000
RightFoot -20.509589 -10.048327 -1.247513
RightToeBase -9.478897 -0.000000 0.000000
LeftUpLeg -2.174006 -7.663211 -7.275538
LeftLeg 0.661854 -0.000000 -0.000000
LeftFoot -7.731840 -4.390100 -3.240216
LeftToeBase 7.035093 -0.000000 -0.000000
Spine -9.343526 -5.356281 0.202041
RightShoulder -18.912795 -19.987997 -22.427563
RightArm 15.474555 28.301005 52.338287
RightForeArm -9.256437 0.000000 17.377507
RightHand 11.430138 -0.000000 -2.010014
RightHandThumb1 -24.326973 -0.000000 -32.862282
LeftShoulder -21.353916 3.200070 23.446376
LeftArm 30.399711 -24.477787 -60.922752
LeftForeArm 5.181680 -0.000000 55.157660
LeftHand 0.723262 -0.000000 30.917928
LeftHandThumb1 -26.253704 0.000000 33.147579
Head 17.998668 2.322403 -1.673954
1664
root 0.768398 33.141099 -2.470965 7.271097 14.092160 0.161729
RightUpLeg -17.374838 14.158834 -2.797912
RightLeg 31.523908 -0.000000 -0.000000
RightFoot -20.576551 -9.787627 -1.283746
RightToeBase -9.509685 -0.000000 0.000000
LeftUpLeg -2.137724 -7.515169 -7.332630
LeftLeg 0.750651 -0.000000 -0.000000
LeftFoot -7.752559 -4.646073 -3.171341
LeftToeBase 6.965374 -0.000000 -0.000000
Spine -9.273096 -5.434543 0.183968
RightShoulder -18.926579 -19.992654 -22.421851
RightArm 15.453488 28.280403 52.321663
RightForeArm -9.170027 -0.000000 17.278031
RightHand 11.437050 -0.000000 -1.930886
RightHandThumb1 -24.326973 -0.000000 -32.862282
LeftShoulder -21.330517 3.190980 23.476539
LeftArm 30.431384 -24.428896 -60.998343
LeftForeArm 5.233889 -0.000000 55.113103
LeftHand 0.889701 -0.000000 30.792298
LeftHandThumb1 -26.253704 0.000000 33.147579
Head 17.977674 2.289085 -1.698062
1665
root 0.772544 33.136292 -2.472053 7.226872 14.194256 0.230014
RightUpLeg -17.659087 14.286307 -2.840530
RightLeg 32.914905 -0.000000 -0.000000
RightFoot -20.646396 -9.561796 -1.150780
RightToeBase -9.600870 -0.000000 0.000000
LeftUpLeg -2.131617 -7.399924 -7.402944
LeftLeg 0.844790 -0.000000 -0.000000
LeftFoot -7.720392 -4.912524 -3.085458
LeftToeBase 6.689570 -0.000000 -0.000000
Spine -9.234254 -5.524322 0.161938
RightShoulder -18.895496 -19.972281 -22.458035
RightArm 15.358019 28.293517 52.306315
RightForeArm -9.104508 0.000000 17.204333
RightHand 11.503326 -0.000000 -1.828032
RightHandThumb1 -24.326973 -0.000000 -32.862282
LeftShoulder -21.299765 3.241400 23.469482
LeftArm 30.548831 -24.369539 -61.078971
LeftForeArm 5.186863 -0.000000 55.067416
LeftHand 0.745449 0.000000 30.938700
LeftHandThumb1 -26.253704 0.000000 33.147579
Head 17.987673 2.278970 -1.747517
1666
root 0.775854 33.131284 -2.471892 7.180260 14.304524 0.298847
RightUpLeg -17.958251 14.442507 -2.880170
RightLeg 34.385224 -0.000000 -0.000000
RightFoot -20.663682 -9.345475 -1.171640
RightToeBase -9.734878 -0.000000 0.000000
LeftUpLeg -2.108139 -7.392150 -7.469743
LeftLeg 0.923234 -0.000000 -0.000000
LeftFoot -7.721448 -5.046513 -3.026949
LeftToeBase 6.591185 -0.000000 -0.000000
Spine -9.184052 -5.626141 0.127713
RightShoulder -18.903663 -19.987421 -22.460961
RightArm 15.340885 28.372742 52.344879
RightForeArm -9.190227 -0.000000 17.147164
RightHand 11.445159 -0.000000 -1.737778
RightHandThumb1 -24.326973 -0.000000 -32.862282
LeftShoulder -21.309298 3.279721 23.468659
LeftArm 30.714436 -24.304529 -61.167985
LeftForeArm 5.261587 -0.000000 54.937647
LeftHand 0.702578 0.000000 31.030412
LeftHandThumb1 -26.253704 0.000000 33.147579
Head 17.960364 2.256304 -1.762890
1667
root 0.779595 33.125924 -2.471149 7.122326 14.432374 0.364866
RightUpLeg -18.266324 14.563814 -2.914194
RightLeg 35.954499 -0.000000 -0.000000
RightFoot -20.660360 -9.097810 -1.195694
RightToeBase -10.020412 -0.000000 0.000000
LeftUpLeg -2.062196 -7.444340 -7.534969
LeftLeg 1.004121 -0.000000 -0.000000
LeftFoot -7.758672 -5.164791 -2.999188
LeftToeBase 6.602362 -0.000000 -0.000000
Spine -9.126763 -5.750245 0.099541
RightShoulder -18.904905 -20.022895 -22.448054
RightArm 15.346368 28.401870 52.361857
RightForeArm -9.082368 0.000000 17.064461
RightHand 11.420380 -0.000000 -1.620719
RightHandThumb1 -24.326973 -0.000000 -32.862282
LeftShoulder -21.275814 3.247022 23.515797
LeftArm 30.761099 -24.268977 -61.247698
LeftForeArm 5.182723 -0.000000 54.785237
LeftHand 0.957030 0.000000 30.987558
LeftHandThumb1 -26.253704 0.000000 33.147579
Head 17.972236 2.253529 -1.767385
1668
root 0.782866 33.120323 -2.470128 7.072616 14.566030 0.433882
RightUpLeg -18.584762 14.732428 -2.944626
RightLeg 37.596216 -0.000000 -0.000000
RightFoot -20.668776 -8.992428 -1.105715
RightToeBase -10.145841 -0.000000 0.000000
LeftUpLeg -2.021198 -7.492846 -7.603136
LeftLeg 1.067497 -0.000000 -0.000000
LeftFoot -7.714337 -5.169897 -2.582788
LeftToeBase 5.935633 -0.000000 -0.000000
Spine -9.079899 -5.862242 0.080450
RightShoulder -18.904350 -20.025491 -22.473040
RightArm 15.292956 28.434095 52.389693
RightForeArm -9.087021 -0.000000 16.992591
RightHand 11.466672 0.000000 -1.655009
RightHandThumb1 -24.326973 -0.000000 -32.862282
LeftShoulder -21.249756 3.163354 23.551108
LeftArm 30.831603 -24.135469 -61.277280
LeftForeArm 5.363669 -0.000000 54.590220
LeftHand 0.727064 -0.000000 31.312499
LeftHandThumb1 -26.253704 0.000000 33.147579
Head 17.966636 2.245811 -1.831491
1669
root 0.785607 33.115477 -2.466924 7.013172 14.702173 0.496967
RightUpLeg -18.900324 14.902346 -2.966996
RightLeg 39.289287 -0.000000 -0.000000
RightFoot -20.594182 -8.936261 -1.054621
RightToeBase -10.322123 -0.000000 0.000000
LeftUpLeg -1.956572 -7.532118 -7.662290
LeftLeg 1.105098 -0.000000 -0.000000
LeftFoot -7.743758 -5.283174 -2.696669
LeftToeBase 6.093144 -0.000000 -0.000000
Spine -9.002425 -5.976448 0.054121
RightShoulder -18.956737 -20.023751 -22.448635
RightArm 15.272964 28.461217 52.405034
RightForeArm -9.135280 -0.000000 16.962252
RightHand 11.379059 -0.000000 -1.660804
RightHandThumb1 -24.326973 -0.000000 -32.862282
LeftShoulder -21.234616 3.021193 23.662856
LeftArm 30.826138 -24.035498 -61.392874
LeftForeArm 5.405019 -0.000000 54.391988
LeftHand 0.790107 -0.000000 31.350920
LeftHandThumb1 -26.253704 0.000000 33.147579
Head 17.875753 2.252368 -1.882344
1670
root 0.789676 33.110988 -2.465183 6.974306 14.833961 0.563804
RightUpLeg -19.251363 15.002083 -2.989071
RightLeg 41.055724 -0.000000 -0.000000
RightFoot -20.590711 -8.920426 -0.960609
RightToeBase -9.994368 -0.000000 0.000000
LeftUpLeg -1.907532 -7.566063 -7.730042
LeftLeg 1.136149 -0.000000 -0.000000
LeftFoot -7.757872 -5.344910 -2.853932
LeftToeBase 6.269548 -0.000000 -0.000000
Spine -8.962466 -6.090508 0.025324
RightShoulder -18.983072 -20.017520 -22.429333
RightArm 15.235453 28.448243 52.383215
RightForeArm -9.095007 -0.000000 16.899074
RightHand 11.391767 -0.000000 -1.484623
RightHandThumb1 -24.326973 -0.000000 -32.862282
LeftShoulder -21.205356 2.968548 23.690174
LeftArm 30.876423 -23.981840 -61.415964
LeftForeArm 5.473008 -0.000000 54.243166
LeftHand 0.752313 -0.000000 31.300893
LeftHandThumb1 -26.253704 0.000000 33.147579
Head 17.847709 2.251598 -1.898739
1671
root 0.794901 33.105098 -2.461258 6.935787 14.969993 0.654677
RightUpLeg -19.605704 15.055786 -3.024257
RightLeg 42.913138 -0.000000 -0.000000
RightFoot -20.607233 -8.916589 -0.718267
RightToeBase -9.814621 -0.000000 0.000000
LeftUpLeg -1.838214 -7.610904 -7.818998
LeftLeg 1.143369 -0.000000 -0.000000
LeftFoot -7.731399 -5.429860 -2.840014
LeftToeBase 6.239703 -0.000000 -0.000000
Spine -8.919579 -6.213028 -0.032739
RightShoulder -19.003503 -20.027044 -22.413505
RightArm 15.193043 28.396402 52.371274
RightForeArm -8.991064 0.000000 16.852874
RightHand 11.365870 -0.000000 -1.415663
RightHandThumb1 -24.326973 -0.000000 -32.862282
LeftShoulder -21.165180 2.939521 23.735327
LeftArm 30.946588 -23.957506 -61.480837
LeftForeArm 5.535501 0.000000 54.065018
LeftHand 0.780105 0.000000 31.316828
LeftHandThumb1 -26.253704 0.000000 33.147579
Head 17.818939 2.224973 -1.920701
1672
root 0.796344 33.100732 -2.458742 6.906681 15.086123 0.701450
RightUpLeg -19.980790 15.127876 -3.023212
RightLeg 44.783206 -0.000000 -0.000000
RightFoot -20.557394 -8.911758 -0.425846
RightToeBase -9.631220 -0.000000 0.000000
LeftUpLeg -1.787280 -7.633347 -7.858871
LeftLeg 1.136289 -0.000000 -0.000000
LeftFoot -7.733400 -5.515613 -2.867758
LeftToeBase 6.325171 -0.000000 -0.000000
Spine -8.886457 -6.298067 -0.044838
RightShoulder -19.054467 -20.027874 -22.383235
RightArm 15.157999 28.344500 52.353083
RightForeArm -8.975717 -0.000000 16.806157
RightHand 11.394826 -0.000000 -1.586509
RightHandThumb1 -24.326973 -0.000000 -32.862282
LeftShoulder -21.114270 2.877662 23.805031
LeftArm 30.965773 -23.957411 -61.601728
LeftForeArm 5.548587 -0.000000 53.894987
LeftHand 1.045090 -0.000000 31.177810
LeftHandThumb1 -26.253704 0.000000 33.147579
Head 17.772215 2.226856 -1.958078
1673
root 0.797826 33.097533 -2.451975 6.863145 15.201616 0.735591
RightUpLeg -20.325210 15.185117 -2.992150
RightLeg 46.646028 -0.000000 -0.000000
RightFoot -20.504876 -8.898278 -0.163028
RightToeBase -9.317982 -0.000000 0.000000
LeftUpLeg -1.704566 -7.654555 -7.884217
LeftLeg 1.099654 -0.000000 -0.000000
LeftFoot -7.715697 -5.608291 -2.891748
LeftToeBase 6.306472 -0.000000 -0.000000
Spine -8.860807 -6.378949 -0.054415
RightShoulder -19.094479 -20.100551 -22.333692
RightArm 15.166051 28.396630 52.387848
RightForeArm -8.975224 -0.000000 16.794311
RightHand 11.394427 0.000000 -1.333071
RightHandThumb1 -24.326973 -0.000000 -32.862282
LeftShoulder -21.096886 2.798664 23.812957
LeftArm 30.996554 -23.830297 -61.535505
LeftForeArm 5.418200 -0.000000 53.756805
LeftHand 1.071481 -0.000000 31.230876
LeftHandThumb1 -26.253704 0.000000 33.147579
Head 17.752876 2.212183 -1.936902
1674
root 0.799416 33.094798 -2.448164 6.839461 15.314655 0.770462
RightUpLeg -20.702049 15.206320 -2.980508
RightLeg 48.572266 -0.000000 -0.000000
RightFoot -20.446001 -8.806544 0.017931
RightToeBase -8.922191 -0.000000 0.000000
LeftUpLeg -1.655367 -7.685528 -7.908721
LeftLeg 1.082717 -0.000000 -0.000000
LeftFoot -7.698757 -5.688863 -2.912558
LeftToeBase 6.265505 -0.000000 -0.000000
Spine -8.845804 -6.471598 -0.054879
RightShoulder -19.090285 -20.052356 -22.340519
RightArm 15.043399 28.371121 52.367057
RightForeArm -8.941190 -0.000000 16.771219
RightHand 11.468643 -0.000000 -1.288499
RightHandThumb1 -24.326973 -0.000000 -32.862282
LeftShoulder -21.052517 2.735036 23.833258
LeftArm 30.979253 -23.688412 -61.475027
LeftForeArm 5.577419 -0.000000 53.712807
LeftHand 0.666851 -0.000000 31.576773
LeftHandThumb1 -26.253704 0.000000 33.147579
Head 17.719543 2.221575 -1.936138
1675
root 0.800232 33.091766 -2.443184 6.816736 15.427646 0.797493
RightUpLeg -21.091524 15.213458 -2.953404
RightLeg 50.566065 -0.000000 -0.000000
RightFoot -20.328222 -8.672814 0.181450
RightToeBase -8.586498 -0.000000 0.000000
LeftUpLeg -1.602482 -7.747189 -7.922036
LeftLeg 1.052338 -0.000000 -0.000000
LeftFoot -7.681168 -5.757901 -2.932461
LeftToeBase 6.272035 -0.000000 -0.000000
Spine -8.833027 -6.554717 -0.058141
RightShoulder -19.140960 -20.119262 -22.284748
RightArm 15.074914 28.367647 52.394768
RightForeArm -8.980078 -0.000000 16.707849
RightHand 11.455450 0.000000 -1.483752
RightHandThumb1 -24.326973 -0.000000 -32.862282
LeftShoulder -21.017084 2.710796 23.860702
LeftArm 30.998926 -23.653037 -61.507376
LeftForeArm 5.468970 -0.000000 53.644343
LeftHand 0.838339 -0.000000 31.506959
LeftHandThumb1 -26.253704 0.000000 33.147579
Head 17.682005 2.214870 -1.909100
